<svg xmlns="http://www.w3.org/2000/svg" width="15.547" height="15.547" viewBox="1157.123 874.227 15.547 15.547"><g data-name="paid_black_24dp"><g data-name="Group 1407"><path d="M1164.896 874.227a7.776 7.776 0 0 0-7.773 7.773 7.776 7.776 0 0 0 7.773 7.773 7.776 7.776 0 0 0 7.774-7.773 7.776 7.776 0 0 0-7.774-7.773Zm0 13.992a6.227 6.227 0 0 1-6.218-6.219 6.227 6.227 0 0 1 6.218-6.219 6.227 6.227 0 0 1 6.22 6.219 6.227 6.227 0 0 1-6.22 6.219Zm.692-6.919c-1.383-.458-2.052-.746-2.052-1.477 0-.792.863-1.08 1.407-1.08 1.018 0 1.392.77 1.477 1.042l1.228-.521c-.116-.342-.637-1.485-2.067-1.734v-.971h-1.36v.979c-2.022.435-2.037 2.215-2.037 2.301 0 1.765 1.749 2.262 2.604 2.573 1.228.435 1.772.832 1.772 1.578 0 .878-.816 1.252-1.54 1.252-1.414 0-1.818-1.454-1.865-1.625l-1.29.52c.49 1.703 1.772 2.162 2.347 2.302v1.002h1.36v-.964c.405-.07 2.348-.458 2.348-2.503.008-1.08-.466-2.028-2.332-2.674Z" fill="gray" fill-rule="evenodd" data-name="Path 6623"/></g></g></svg>