<svg xmlns="http://www.w3.org/2000/svg" width="14" height="14" viewBox="1154.896 903 14 14"><g data-name="Group 1413"><g data-name="Rectangle 338"><path d="M1154.896 903h6v6h-6v-6z" fill="#fff" fill-rule="evenodd"/><path d="M1155.896 904h4v4h0-4 0v-4h0z" stroke-linejoin="round" stroke-linecap="round" stroke-width="1.33334" stroke="#44215d" fill="transparent"/></g><g data-name="Rectangle 340"><path d="M1154.896 911h6v6h-6v-6z" fill="#fff" fill-rule="evenodd"/><path d="M1155.896 912h4v4h0-4 0v-4h0z" stroke-linejoin="round" stroke-linecap="round" stroke-width="1.33334" stroke="#44215d" fill="transparent"/></g><g data-name="Rectangle 339"><path d="M1162.896 903h6v6h-6v-6z" fill="#fff" fill-rule="evenodd"/><path d="M1163.896 904h4v4h0-4 0v-4h0z" stroke-linejoin="round" stroke-linecap="round" stroke-width="1.33334" stroke="#44215d" fill="transparent"/></g><g data-name="Rectangle 341"><path d="M1162.896 911h6v6h-6v-6z" fill="#fff" fill-rule="evenodd"/><path d="M1163.896 912h4v4h0-4 0v-4h0z" stroke-linejoin="round" stroke-linecap="round" stroke-width="1.33334" stroke="#44215d" fill="transparent"/></g></g></svg>